<svg width="762" height="675" viewBox="0 0 762 675" fill="none" xmlns="http://www.w3.org/2000/svg">
<path d="M737.001 51.2501C720.15 32.4069 696.489 21.9717 670.442 21.8891C670.294 21.8891 670.171 21.8891 670.043 21.8891C617.486 21.8891 587.33 53.8279 560.946 89.3598C554.699 97.0829 542.609 107.456 527.035 98.6557C517.877 93.5001 514.631 81.8259 519.742 72.6676C523.556 65.8565 532.232 63.3957 539.064 67.2608C541.432 68.5892 543.152 70.8022 543.968 73.442C544.701 76.0921 544.388 78.8695 543.004 81.2477C542.082 82.8825 540.575 83.9288 538.936 84.4416C538.248 80.7762 534.831 78.2191 531.12 78.7766C527.286 79.3411 524.664 82.9032 525.252 86.7372C525.294 87.1261 525.693 87.312 525.776 87.6596C525.335 89.8691 525.965 92.1647 528.016 93.328C536.63 98.1361 547.547 95.0902 552.411 86.5066C555.178 81.6125 555.845 75.9235 554.338 70.5166C552.892 65.1097 549.375 60.6252 544.405 57.8787C532.377 51.1399 517.161 55.3835 510.457 67.3846C502.407 81.6986 507.48 99.9189 521.814 107.99C527.455 111.142 533.213 112.705 538.957 112.705C540.843 112.705 542.688 112.274 544.529 111.958C539.146 119.502 533.781 127.06 528.205 134.081C515.86 149.672 505.236 162.688 494.904 172.662C493.668 172.765 492.515 173.058 491.593 173.939C470.069 194.059 447.667 196.785 428.597 181.611C413.756 169.751 411.223 148.037 423.042 133.159C432.159 121.749 448.882 119.812 460.325 128.929C464.497 132.284 467.178 137.058 467.763 142.424C468.372 147.748 466.861 153.007 463.512 157.223C461.268 160.134 457.916 161.876 454.289 162.544C454.75 161.287 455.084 159.945 455.084 158.52C455.084 152.236 450.011 147.08 443.644 147.08C437.335 147.08 432.245 152.236 432.245 158.52C432.245 160.575 432.892 162.375 433.88 164.051C433.921 165.559 434.444 167.028 435.766 168.033C441.131 172.308 447.815 174.276 454.712 173.44C461.523 172.662 467.663 169.289 471.958 163.924C477.052 157.447 479.42 149.4 478.497 141.205C477.575 133.011 473.548 125.645 467.136 120.541C451.084 107.766 427.55 110.388 414.789 126.482C399.46 145.772 402.536 173.856 421.493 189.509C413.092 185.462 405.765 179.573 400.117 171.695C390.845 158.765 387.156 142.417 389.964 126.805C392.153 114.787 398.826 104.341 408.876 97.3617C418.895 90.4026 430.985 87.7215 443.079 89.8898C445.929 90.32 448.779 88.4753 449.284 85.5636C449.766 82.6382 447.88 79.8539 444.965 79.3204C430.194 76.6393 415.167 79.9158 402.76 88.52C395.853 93.3487 390.353 99.6573 386.213 106.785V87.2122C408.122 84.7892 425.224 66.3797 425.224 43.8401C425.224 32.1246 420.653 21.1113 412.397 12.834C404.109 4.54645 393.113 0 381.38 0C357.196 0 337.537 19.6795 337.537 43.8436C337.537 65.9942 354.085 84.1422 375.478 87.1089V106.599C363.828 86.6787 340.755 74.9667 316.915 79.3445C313.969 79.8573 312.021 82.6451 312.554 85.5877C313.067 88.4821 315.865 90.3441 318.797 89.9173C343.515 85.4535 367.407 101.998 371.892 126.812C374.7 142.468 371.011 158.813 361.76 171.743C356.101 179.625 348.736 185.513 340.342 189.557C359.361 173.905 362.431 145.8 347.036 126.509C334.23 110.437 310.792 107.773 294.716 120.569C288.263 125.694 284.229 133.059 283.283 141.233C282.36 149.407 284.656 157.453 289.822 163.931C298.643 175.04 314.918 176.902 326.045 168.057C327.353 167.052 327.845 165.607 327.962 164.055C328.885 162.378 329.525 160.575 329.525 158.562C329.525 152.236 324.442 147.121 318.112 147.121C311.824 147.121 306.714 152.236 306.714 158.562C306.714 159.945 307.082 161.287 307.509 162.568C304.008 161.955 300.667 160.238 298.216 157.243C294.916 153.027 293.343 147.793 294.014 142.424C294.675 137.103 297.252 132.305 301.506 128.97C312.936 119.836 329.652 121.794 338.735 133.186C350.553 148.04 348.113 169.795 333.17 181.659C314.096 196.809 291.76 194.128 270.215 173.946C269.282 173.11 268.088 172.814 266.945 172.731C256.644 162.692 245.954 149.679 233.623 134.105C228.02 127.094 222.651 119.53 217.268 111.985C219.113 112.319 220.958 112.729 222.854 112.729C228.553 112.729 234.325 111.187 239.956 108.014C254.29 99.967 259.391 81.7433 251.344 67.3881C244.605 55.4317 229.348 51.1675 217.395 57.9028C212.481 60.6493 208.97 65.1338 207.463 70.5407C205.962 75.9475 206.623 81.6401 209.4 86.5101C211.717 90.6676 215.53 93.6791 220.173 94.9663C224.743 96.2638 229.572 95.6684 233.754 93.3315C235.839 92.1682 236.397 89.8932 235.984 87.7043C236.091 87.3154 236.455 87.1502 236.541 86.7406C237.034 82.9066 234.414 79.3617 230.622 78.7801C226.912 78.2225 223.518 80.8003 222.857 84.4692C221.137 83.9116 219.67 82.8344 218.748 81.2753C217.416 78.8764 217.103 76.099 217.826 73.4489C218.538 70.8057 220.259 68.5961 222.699 67.2676C229.479 63.4646 238.259 65.8634 242.01 72.6539C247.166 81.8328 243.927 93.507 234.717 98.6626C219.251 107.349 207.294 97.2688 201.027 89.5869C174.633 53.9587 144.35 21.9166 91.7059 21.9166C91.582 21.9166 91.4546 21.9166 91.2963 21.9166C65.2464 21.9992 41.6193 32.4378 24.7586 51.2776C6.17018 72.086 -2.60951 101.344 0.677283 131.575C3.11742 154.291 14.32 174.662 32.1547 188.996C47.4977 201.362 66.1687 207.857 85.5212 207.857C86.1923 207.857 86.8531 207.774 87.6034 207.774C87.7101 207.774 87.803 207.898 87.9304 207.898C88.1816 207.898 88.3812 207.898 88.6118 207.857C88.9353 207.816 89.135 207.729 89.4309 207.688C91.2757 207.606 93.141 207.606 95.0168 207.372C133.106 203.245 160.725 168.856 156.598 130.732C153.233 99.6642 125.362 77.1143 94.0944 80.4975C91.1518 80.8244 89.0214 83.4607 89.3483 86.3965C89.6925 89.3391 91.9881 91.5108 95.2473 91.1667C120.313 88.3583 143.124 106.685 145.867 131.865C147.974 150.976 140.46 168.79 127.52 180.984C132.841 169.816 134.52 156.297 131.553 142.424C129.093 130.601 122.134 120.483 112.032 113.892C101.879 107.322 89.8164 105.071 77.9977 107.583C68.2337 109.659 59.8601 115.393 54.4533 123.763C49.0464 132.116 47.2017 142.045 49.277 151.685C50.9531 159.735 55.6992 166.65 62.5619 171.134C69.4796 175.656 77.6914 177.25 85.8447 175.491C92.6041 174.025 98.3965 170.088 102.182 164.282C105.159 159.69 106.078 154.325 105.786 148.963C105.786 148.794 105.913 148.625 105.913 148.416C105.913 148.123 105.786 147.958 105.744 147.662C105.652 146.739 105.913 145.862 105.703 144.939C105.61 144.561 105.252 144.437 105.073 144.058C103.449 139.908 99.3842 136.934 94.6898 136.848C88.3606 136.765 83.1843 141.794 83.0983 148.12C83.0157 153.716 87.1147 158.242 92.4355 159.312C90.2225 162.162 87.2799 164.216 83.7178 165.011C78.4486 166.185 73.0417 165.135 68.5435 162.206C64.059 159.25 60.9477 154.765 59.898 149.544C58.4628 142.63 59.7087 135.585 63.5668 129.638C67.4353 123.694 73.3756 119.598 80.3312 118.108C89.3449 116.181 98.5513 117.898 106.278 122.916C113.98 127.938 119.26 135.671 121.191 144.657C124.133 158.596 121.862 172.132 115.027 181.817C109.327 189.822 100.4 194.871 89.4068 196.761C71.1006 197.683 53.3829 192.232 38.952 180.664C23.3269 168.13 13.5422 150.336 11.4256 130.45C8.48298 103.261 16.299 77.0386 32.8431 58.4948C47.6285 41.9472 68.4609 32.7785 91.4065 32.72C91.5338 32.72 91.6577 32.72 91.7816 32.72C138.736 32.72 166.892 61.933 191.483 94.8665C191.535 94.9181 191.483 94.9835 191.535 95.0454C191.703 95.2347 191.913 95.3793 191.986 95.5789C196.429 101.519 200.779 107.535 205.054 113.558C206.186 115.152 207.329 116.608 208.437 118.18C199.939 116.546 191.315 118.328 183.309 123.649C169.622 132.777 165.884 151.258 174.936 164.925C179.723 172.091 187.646 175.99 195.713 175.99C200.459 175.99 205.24 174.648 209.493 171.843C214.188 168.718 217.361 164.006 218.504 158.472C219.591 152.979 218.504 147.362 215.372 142.709C209.903 134.58 198.762 132.357 190.612 137.764C188.957 138.896 188.444 140.737 188.568 142.582C188.399 143.084 187.897 143.418 187.856 143.965C187.518 147.82 190.351 151.176 194.236 151.551C197.84 151.868 200.858 149.266 201.529 145.724C203.457 146.02 205.301 146.943 206.444 148.701C207.921 150.925 208.509 153.65 207.921 156.331C207.408 159.012 205.794 161.36 203.522 162.867C197.069 167.228 188.179 165.466 183.863 158.947C178.05 150.25 180.501 138.387 189.229 132.563C204.83 122.273 218.098 132.897 224.571 140.169C224.602 140.169 224.644 140.169 224.644 140.19C224.812 140.403 224.981 140.655 225.094 140.823C255.46 179.088 281.428 212.118 326.359 205.282C344.131 202.557 359.839 192.879 370.484 177.997C372.411 175.271 373.867 172.253 375.399 169.32V213.284C374.583 213.914 373.702 214.437 373.083 215.36L359.753 235.101C358.59 236.753 358.462 238.894 359.405 240.653C360.328 242.394 362.152 243.502 364.152 243.502H368.677C368.677 243.754 368.478 243.988 368.478 244.297C368.478 251.046 373.998 256.557 380.758 256.557C387.517 256.557 393.006 251.043 393.006 244.297C393.006 243.984 392.838 243.754 392.838 243.502H398.506C398.654 243.502 398.737 243.502 398.799 243.502C401.786 243.502 404.168 241.072 404.168 238.137C404.168 236.461 403.39 234.97 402.196 233.99L389.582 215.377C388.608 213.997 387.39 212.992 386.123 212.235V169C387.641 172.081 389.255 175.161 391.248 178.011C401.893 192.868 417.566 202.594 435.342 205.276C480.001 212.149 506.217 179.081 536.582 140.816C536.796 140.603 536.961 140.372 537.047 140.183C537.047 140.183 537.088 140.183 537.088 140.162C543.648 132.89 556.916 122.224 572.462 132.556C581.2 138.38 583.633 150.243 577.827 158.94C573.511 165.459 564.708 167.18 558.148 162.86C555.866 161.353 554.293 159.047 553.77 156.325C553.226 153.643 553.77 150.918 555.26 148.694C556.331 147.101 557.921 146.013 559.786 145.635C559.975 145.59 560.058 145.714 560.227 145.714C560.856 149.197 563.913 151.795 567.519 151.541C571.395 151.203 574.224 147.81 573.907 143.955C573.866 143.408 573.363 143.029 573.174 142.53C573.322 140.686 572.799 138.882 571.14 137.75C567.137 135.089 562.402 134.167 557.731 135.089C553.016 136.032 549.034 138.755 546.391 142.695C543.269 147.352 542.223 152.948 543.269 158.414C544.402 163.907 547.544 168.68 552.238 171.785C556.472 174.593 561.293 175.935 566.071 175.935C574.141 175.935 582.06 172.036 586.841 164.87C595.937 151.183 592.186 132.677 578.454 123.574C570.428 118.249 561.858 116.47 553.371 118.091C554.503 116.511 555.611 115.076 556.723 113.483C561.042 107.415 565.441 101.382 569.884 95.3965C570.011 95.2416 570.135 95.1349 570.304 94.9869C570.324 94.9456 570.304 94.9043 570.345 94.8493C594.95 61.8952 623.095 32.6581 670.06 32.6581C670.184 32.6581 670.312 32.6581 670.398 32.6581C693.409 32.7235 714.196 41.8921 728.971 58.4569C745.546 77.0042 753.387 103.219 750.392 130.412C748.234 150.26 738.446 168.112 722.917 180.647C708.5 192.211 690.728 197.663 672.435 196.744C661.367 194.854 652.484 189.805 646.805 181.759C639.973 172.118 637.709 158.582 640.686 144.623C642.572 135.633 647.896 127.9 655.585 122.882C663.277 117.864 672.497 116.143 681.531 118.074C688.446 119.54 694.417 123.615 698.234 129.559C702.113 135.492 703.41 142.572 701.923 149.489C700.832 154.71 697.773 159.233 693.288 162.148C688.762 165.084 683.352 166.109 678.114 164.953C674.552 164.199 671.533 162.103 669.396 159.233C674.72 158.183 678.788 153.702 678.744 148.065C678.661 141.735 673.485 136.704 667.156 136.79C662.355 136.855 658.397 139.808 656.762 143.959C656.569 144.334 656.215 144.461 656.129 144.881C655.919 145.762 656.194 146.643 656.087 147.562C656.046 147.855 655.919 148.023 655.919 148.319C655.919 148.529 656.046 148.694 656.046 148.863C655.75 154.229 656.714 159.591 659.691 164.203C663.466 169.988 669.248 173.925 675.997 175.395C684.085 177.092 692.362 175.564 699.235 171.034C706.132 166.546 710.868 159.635 712.544 151.627C714.637 141.904 712.771 131.926 707.347 123.594C701.941 115.265 693.598 109.531 683.834 107.477C672.012 104.964 659.942 107.215 649.841 113.785C639.698 120.366 632.78 130.481 630.285 142.317C627.332 156.19 628.967 169.792 634.374 180.964C632.298 179.077 630.309 177.191 628.53 174.972C618.7 162.733 614.216 147.39 615.892 131.758C618.68 106.579 641.46 88.1999 666.567 91.06C669.709 91.4076 672.184 89.2565 672.435 86.2898C672.81 83.354 670.632 80.7177 667.675 80.3907C636.473 76.8699 608.534 99.5334 605.206 130.605C603.172 149.066 608.451 167.217 620.063 181.676C631.713 196.134 648.247 205.234 666.753 207.224C668.594 207.437 670.504 207.437 672.349 207.516C672.662 207.581 672.831 207.664 673.165 207.705C673.392 207.75 673.626 207.75 673.832 207.75C673.96 207.75 674.063 207.668 674.17 207.626C674.841 207.668 675.512 207.75 676.245 207.75C695.632 207.75 714.306 201.19 729.646 188.89C747.481 174.555 758.69 154.143 761.123 131.448C764.372 101.313 755.589 72.055 737.001 51.2501ZM386.13 74.1854V13.3055C390.697 17.938 395.058 28.6657 395.058 43.7954C395.058 58.6669 390.68 69.4393 386.13 74.1854ZM375.402 15.0229V72.6229C371.307 67.4019 367.607 57.6172 367.607 43.816C367.607 30.0149 371.303 20.2302 375.402 15.0229ZM414.455 43.816C414.455 54.7055 409.089 64.2906 400.957 70.3376C403.985 63.0653 405.785 54.0137 405.785 43.816C405.785 33.6218 403.965 24.5667 400.957 17.2738C409.089 23.3002 414.455 32.9197 414.455 43.816ZM348.21 43.816C348.21 32.9403 353.575 23.3759 361.663 17.3392C358.655 24.6114 356.855 33.6631 356.855 43.816C356.855 53.9931 358.659 63.0447 361.708 70.317C353.572 64.294 348.21 54.7055 348.21 43.816Z" fill="#DBC69C"/>
<mask id="path-2-outside-1_20_10" maskUnits="userSpaceOnUse" x="2" y="465" width="758" height="210" fill="black">
<rect fill="white" x="2" y="465" width="758" height="210"/>
<path d="M747.984 475.965H10.2932C7.55285 475.965 5.31078 473.723 5.31078 470.982C5.31078 468.242 7.55285 466 10.2932 466H747.984C750.725 466 752.967 468.242 752.967 470.982C752.967 473.723 750.725 475.965 747.984 475.965Z"/>
<path d="M234.45 544.126C230.016 544.126 225.831 543.927 221.994 543.578C219.254 543.329 217.211 540.887 217.46 538.147C217.71 535.407 220.101 533.414 222.891 533.613C265.64 537.549 348.846 518.118 376.199 483.29C377.893 481.148 381.032 480.749 383.174 482.443C385.317 484.137 385.715 487.276 384.021 489.419C356.319 524.744 281.085 544.076 234.45 544.076V544.126Z"/>
<path d="M32.1154 604.81C30.7204 604.81 29.3253 604.661 27.9303 604.411C11.6877 601.322 0.278058 583.186 3.56643 565.548C6.30674 550.701 18.1648 537.597 34.507 531.319C50.4506 525.19 67.7394 526.187 79.3982 527.482C106.403 530.472 132.66 538.543 158.02 546.316C163.7 548.06 169.38 549.804 175.11 551.498C205.203 560.466 237.489 568.339 269.526 565.15C305 561.662 361.401 545.469 375.8 520.308C377.145 517.916 380.234 517.069 382.576 518.464C384.968 519.809 385.814 522.899 384.419 525.24C367.33 555.085 305.449 571.627 270.472 575.065C236.792 578.403 203.36 570.282 172.27 561.014C166.54 559.32 160.81 557.576 155.13 555.783C130.169 548.11 104.41 540.188 78.3519 537.298C61.4617 535.454 48.7068 536.451 38.0943 540.536C25.1899 545.519 15.4742 555.982 13.3816 567.292C11.3389 578.303 17.9655 592.304 29.8235 594.546C35.1048 595.543 41.2332 593.051 45.3686 588.169C47.0128 586.226 50.6499 581.044 48.4576 575.164C47.511 572.574 48.8064 569.734 51.3972 568.737C53.9881 567.79 56.8281 569.086 57.8245 571.677C60.6147 579.15 58.7712 587.72 52.9916 594.596C47.6107 600.974 39.7385 604.71 32.1652 604.71L32.1154 604.81Z"/>
<path d="M318.503 622.598C313.77 622.598 309.087 622.2 304.553 621.403C290.104 618.812 272.267 609.544 269.626 591.906C269.228 589.166 271.071 586.625 273.811 586.226C276.552 585.778 279.093 587.671 279.491 590.412C281.235 602.021 294.239 609.395 306.297 611.537C330.86 615.972 361.601 605.857 376.299 588.568C378.093 586.476 381.231 586.226 383.324 588.02C385.417 589.814 385.666 592.953 383.872 595.045C369.523 611.886 343.216 622.549 318.454 622.549L318.503 622.598Z"/>
<path d="M380.135 673.021C378.79 673.021 377.445 672.473 376.448 671.376C371.317 665.746 363.793 662.657 354.028 659.817L351.238 659.02C342.718 656.579 333.899 654.038 326.376 648.457C318.005 642.229 310.781 630.172 314.767 618.313C315.614 615.722 318.454 614.278 321.094 615.174C323.685 616.071 325.13 618.861 324.233 621.502C321.941 628.328 326.575 636.2 332.354 640.485C338.433 644.97 346.006 647.162 354.028 649.504L356.818 650.301C366.683 653.191 376.747 656.927 383.822 664.7C385.666 666.743 385.516 669.882 383.474 671.725C382.527 672.572 381.331 673.021 380.135 673.021Z"/>
<path d="M527.564 544.125C480.879 544.125 405.695 524.793 377.993 489.467C376.299 487.325 376.648 484.186 378.84 482.492C380.983 480.798 384.121 481.197 385.815 483.339C413.169 518.166 496.325 537.598 539.123 533.662C541.864 533.462 544.305 535.455 544.554 538.196C544.803 540.936 542.76 543.378 540.02 543.627C536.184 543.975 531.998 544.175 527.564 544.175V544.125Z"/>
<path d="M729.898 604.811C722.275 604.811 714.453 601.074 709.072 594.697C703.292 587.821 701.498 579.301 704.239 571.778C705.185 569.187 708.025 567.891 710.666 568.838C713.257 569.785 714.552 572.675 713.606 575.265C711.413 581.145 715.051 586.326 716.695 588.27C720.83 593.152 726.958 595.644 732.24 594.647C744.098 592.405 750.724 578.404 748.682 567.393C746.589 556.133 736.873 545.62 723.969 540.637C713.406 536.552 700.602 535.555 683.711 537.399C657.654 540.289 631.845 548.211 606.883 555.884C601.153 557.628 595.473 559.421 589.744 561.115C558.654 570.383 525.222 578.454 491.541 575.166C456.565 571.728 394.684 555.186 377.594 525.341C376.249 522.95 377.046 519.91 379.437 518.565C381.829 517.22 384.868 518.017 386.263 520.409C400.662 545.57 457.113 561.813 492.538 565.251C524.524 568.39 556.81 560.517 586.953 551.599C592.633 549.905 598.313 548.161 603.993 546.417C629.403 538.595 655.661 530.523 682.615 527.583C694.274 526.288 711.613 525.291 727.507 531.42C743.849 537.698 755.707 550.802 758.447 565.649C761.686 583.287 750.326 601.423 734.083 604.512C732.738 604.762 731.343 604.911 729.898 604.911V604.811Z"/>
<path d="M443.511 622.599C418.748 622.599 392.441 611.937 378.092 595.096C376.299 593.004 376.548 589.865 378.64 588.071C380.733 586.277 383.872 586.526 385.665 588.619C400.363 605.908 431.105 615.973 455.668 611.588C467.775 609.396 480.779 602.022 482.473 590.463C482.872 587.722 485.413 585.829 488.153 586.277C490.893 586.676 492.737 589.217 492.338 591.957C489.697 609.545 471.86 618.813 457.412 621.453C452.878 622.251 448.194 622.649 443.461 622.649L443.511 622.599Z"/>
<path d="M381.928 673.02C380.732 673.02 379.537 672.572 378.59 671.725C376.547 669.881 376.398 666.742 378.241 664.699C385.316 656.927 395.38 653.14 405.245 650.25L408.036 649.453C416.057 647.161 423.63 644.969 429.709 640.435C435.489 636.15 440.072 628.278 437.83 621.452C436.933 618.861 438.378 616.021 440.969 615.124C443.56 614.277 446.4 615.672 447.297 618.263C451.283 630.121 444.058 642.179 435.688 648.407C428.165 653.987 419.346 656.528 410.826 658.97L408.036 659.767C400.164 662.059 391.295 665.048 385.615 671.326C384.619 672.422 383.273 672.97 381.928 672.97V673.02Z"/>
</mask>
<path d="M747.984 475.965H10.2932C7.55285 475.965 5.31078 473.723 5.31078 470.982C5.31078 468.242 7.55285 466 10.2932 466H747.984C750.725 466 752.967 468.242 752.967 470.982C752.967 473.723 750.725 475.965 747.984 475.965Z" fill="#DBC69C"/>
<path d="M234.45 544.126C230.016 544.126 225.831 543.927 221.994 543.578C219.254 543.329 217.211 540.887 217.46 538.147C217.71 535.407 220.101 533.414 222.891 533.613C265.64 537.549 348.846 518.118 376.199 483.29C377.893 481.148 381.032 480.749 383.174 482.443C385.317 484.137 385.715 487.276 384.021 489.419C356.319 524.744 281.085 544.076 234.45 544.076V544.126Z" fill="#DBC69C"/>
<path d="M32.1154 604.81C30.7204 604.81 29.3253 604.661 27.9303 604.411C11.6877 601.322 0.278058 583.186 3.56643 565.548C6.30674 550.701 18.1648 537.597 34.507 531.319C50.4506 525.19 67.7394 526.187 79.3982 527.482C106.403 530.472 132.66 538.543 158.02 546.316C163.7 548.06 169.38 549.804 175.11 551.498C205.203 560.466 237.489 568.339 269.526 565.15C305 561.662 361.401 545.469 375.8 520.308C377.145 517.916 380.234 517.069 382.576 518.464C384.968 519.809 385.814 522.899 384.419 525.24C367.33 555.085 305.449 571.627 270.472 575.065C236.792 578.403 203.36 570.282 172.27 561.014C166.54 559.32 160.81 557.576 155.13 555.783C130.169 548.11 104.41 540.188 78.3519 537.298C61.4617 535.454 48.7068 536.451 38.0943 540.536C25.1899 545.519 15.4742 555.982 13.3816 567.292C11.3389 578.303 17.9655 592.304 29.8235 594.546C35.1048 595.543 41.2332 593.051 45.3686 588.169C47.0128 586.226 50.6499 581.044 48.4576 575.164C47.511 572.574 48.8064 569.734 51.3972 568.737C53.9881 567.79 56.8281 569.086 57.8245 571.677C60.6147 579.15 58.7712 587.72 52.9916 594.596C47.6107 600.974 39.7385 604.71 32.1652 604.71L32.1154 604.81Z" fill="#DBC69C"/>
<path d="M318.503 622.598C313.77 622.598 309.087 622.2 304.553 621.403C290.104 618.812 272.267 609.544 269.626 591.906C269.228 589.166 271.071 586.625 273.811 586.226C276.552 585.778 279.093 587.671 279.491 590.412C281.235 602.021 294.239 609.395 306.297 611.537C330.86 615.972 361.601 605.857 376.299 588.568C378.093 586.476 381.231 586.226 383.324 588.02C385.417 589.814 385.666 592.953 383.872 595.045C369.523 611.886 343.216 622.549 318.454 622.549L318.503 622.598Z" fill="#DBC69C"/>
<path d="M380.135 673.021C378.79 673.021 377.445 672.473 376.448 671.376C371.317 665.746 363.793 662.657 354.028 659.817L351.238 659.02C342.718 656.579 333.899 654.038 326.376 648.457C318.005 642.229 310.781 630.172 314.767 618.313C315.614 615.722 318.454 614.278 321.094 615.174C323.685 616.071 325.13 618.861 324.233 621.502C321.941 628.328 326.575 636.2 332.354 640.485C338.433 644.97 346.006 647.162 354.028 649.504L356.818 650.301C366.683 653.191 376.747 656.927 383.822 664.7C385.666 666.743 385.516 669.882 383.474 671.725C382.527 672.572 381.331 673.021 380.135 673.021Z" fill="#DBC69C"/>
<path d="M527.564 544.125C480.879 544.125 405.695 524.793 377.993 489.467C376.299 487.325 376.648 484.186 378.84 482.492C380.983 480.798 384.121 481.197 385.815 483.339C413.169 518.166 496.325 537.598 539.123 533.662C541.864 533.462 544.305 535.455 544.554 538.196C544.803 540.936 542.76 543.378 540.02 543.627C536.184 543.975 531.998 544.175 527.564 544.175V544.125Z" fill="#DBC69C"/>
<path d="M729.898 604.811C722.275 604.811 714.453 601.074 709.072 594.697C703.292 587.821 701.498 579.301 704.239 571.778C705.185 569.187 708.025 567.891 710.666 568.838C713.257 569.785 714.552 572.675 713.606 575.265C711.413 581.145 715.051 586.326 716.695 588.27C720.83 593.152 726.958 595.644 732.24 594.647C744.098 592.405 750.724 578.404 748.682 567.393C746.589 556.133 736.873 545.62 723.969 540.637C713.406 536.552 700.602 535.555 683.711 537.399C657.654 540.289 631.845 548.211 606.883 555.884C601.153 557.628 595.473 559.421 589.744 561.115C558.654 570.383 525.222 578.454 491.541 575.166C456.565 571.728 394.684 555.186 377.594 525.341C376.249 522.95 377.046 519.91 379.437 518.565C381.829 517.22 384.868 518.017 386.263 520.409C400.662 545.57 457.113 561.813 492.538 565.251C524.524 568.39 556.81 560.517 586.953 551.599C592.633 549.905 598.313 548.161 603.993 546.417C629.403 538.595 655.661 530.523 682.615 527.583C694.274 526.288 711.613 525.291 727.507 531.42C743.849 537.698 755.707 550.802 758.447 565.649C761.686 583.287 750.326 601.423 734.083 604.512C732.738 604.762 731.343 604.911 729.898 604.911V604.811Z" fill="#DBC69C"/>
<path d="M443.511 622.599C418.748 622.599 392.441 611.937 378.092 595.096C376.299 593.004 376.548 589.865 378.64 588.071C380.733 586.277 383.872 586.526 385.665 588.619C400.363 605.908 431.105 615.973 455.668 611.588C467.775 609.396 480.779 602.022 482.473 590.463C482.872 587.722 485.413 585.829 488.153 586.277C490.893 586.676 492.737 589.217 492.338 591.957C489.697 609.545 471.86 618.813 457.412 621.453C452.878 622.251 448.194 622.649 443.461 622.649L443.511 622.599Z" fill="#DBC69C"/>
<path d="M381.928 673.02C380.732 673.02 379.537 672.572 378.59 671.725C376.547 669.881 376.398 666.742 378.241 664.699C385.316 656.927 395.38 653.14 405.245 650.25L408.036 649.453C416.057 647.161 423.63 644.969 429.709 640.435C435.489 636.15 440.072 628.278 437.83 621.452C436.933 618.861 438.378 616.021 440.969 615.124C443.56 614.277 446.4 615.672 447.297 618.263C451.283 630.121 444.058 642.179 435.688 648.407C428.165 653.987 419.346 656.528 410.826 658.97L408.036 659.767C400.164 662.059 391.295 665.048 385.615 671.326C384.619 672.422 383.273 672.97 381.928 672.97V673.02Z" fill="#DBC69C"/>
<path d="M747.984 475.965H10.2932C7.55285 475.965 5.31078 473.723 5.31078 470.982C5.31078 468.242 7.55285 466 10.2932 466H747.984C750.725 466 752.967 468.242 752.967 470.982C752.967 473.723 750.725 475.965 747.984 475.965Z" stroke="#DBC69C" stroke-width="2" mask="url(#path-2-outside-1_20_10)"/>
<path d="M234.45 544.126C230.016 544.126 225.831 543.927 221.994 543.578C219.254 543.329 217.211 540.887 217.46 538.147C217.71 535.407 220.101 533.414 222.891 533.613C265.64 537.549 348.846 518.118 376.199 483.29C377.893 481.148 381.032 480.749 383.174 482.443C385.317 484.137 385.715 487.276 384.021 489.419C356.319 524.744 281.085 544.076 234.45 544.076V544.126Z" stroke="#DBC69C" stroke-width="2" mask="url(#path-2-outside-1_20_10)"/>
<path d="M32.1154 604.81C30.7204 604.81 29.3253 604.661 27.9303 604.411C11.6877 601.322 0.278058 583.186 3.56643 565.548C6.30674 550.701 18.1648 537.597 34.507 531.319C50.4506 525.19 67.7394 526.187 79.3982 527.482C106.403 530.472 132.66 538.543 158.02 546.316C163.7 548.06 169.38 549.804 175.11 551.498C205.203 560.466 237.489 568.339 269.526 565.15C305 561.662 361.401 545.469 375.8 520.308C377.145 517.916 380.234 517.069 382.576 518.464C384.968 519.809 385.814 522.899 384.419 525.24C367.33 555.085 305.449 571.627 270.472 575.065C236.792 578.403 203.36 570.282 172.27 561.014C166.54 559.32 160.81 557.576 155.13 555.783C130.169 548.11 104.41 540.188 78.3519 537.298C61.4617 535.454 48.7068 536.451 38.0943 540.536C25.1899 545.519 15.4742 555.982 13.3816 567.292C11.3389 578.303 17.9655 592.304 29.8235 594.546C35.1048 595.543 41.2332 593.051 45.3686 588.169C47.0128 586.226 50.6499 581.044 48.4576 575.164C47.511 572.574 48.8064 569.734 51.3972 568.737C53.9881 567.79 56.8281 569.086 57.8245 571.677C60.6147 579.15 58.7712 587.72 52.9916 594.596C47.6107 600.974 39.7385 604.71 32.1652 604.71L32.1154 604.81Z" stroke="#DBC69C" stroke-width="2" mask="url(#path-2-outside-1_20_10)"/>
<path d="M318.503 622.598C313.77 622.598 309.087 622.2 304.553 621.403C290.104 618.812 272.267 609.544 269.626 591.906C269.228 589.166 271.071 586.625 273.811 586.226C276.552 585.778 279.093 587.671 279.491 590.412C281.235 602.021 294.239 609.395 306.297 611.537C330.86 615.972 361.601 605.857 376.299 588.568C378.093 586.476 381.231 586.226 383.324 588.02C385.417 589.814 385.666 592.953 383.872 595.045C369.523 611.886 343.216 622.549 318.454 622.549L318.503 622.598Z" stroke="#DBC69C" stroke-width="2" mask="url(#path-2-outside-1_20_10)"/>
<path d="M380.135 673.021C378.79 673.021 377.445 672.473 376.448 671.376C371.317 665.746 363.793 662.657 354.028 659.817L351.238 659.02C342.718 656.579 333.899 654.038 326.376 648.457C318.005 642.229 310.781 630.172 314.767 618.313C315.614 615.722 318.454 614.278 321.094 615.174C323.685 616.071 325.13 618.861 324.233 621.502C321.941 628.328 326.575 636.2 332.354 640.485C338.433 644.97 346.006 647.162 354.028 649.504L356.818 650.301C366.683 653.191 376.747 656.927 383.822 664.7C385.666 666.743 385.516 669.882 383.474 671.725C382.527 672.572 381.331 673.021 380.135 673.021Z" stroke="#DBC69C" stroke-width="2" mask="url(#path-2-outside-1_20_10)"/>
<path d="M527.564 544.125C480.879 544.125 405.695 524.793 377.993 489.467C376.299 487.325 376.648 484.186 378.84 482.492C380.983 480.798 384.121 481.197 385.815 483.339C413.169 518.166 496.325 537.598 539.123 533.662C541.864 533.462 544.305 535.455 544.554 538.196C544.803 540.936 542.76 543.378 540.02 543.627C536.184 543.975 531.998 544.175 527.564 544.175V544.125Z" stroke="#DBC69C" stroke-width="2" mask="url(#path-2-outside-1_20_10)"/>
<path d="M729.898 604.811C722.275 604.811 714.453 601.074 709.072 594.697C703.292 587.821 701.498 579.301 704.239 571.778C705.185 569.187 708.025 567.891 710.666 568.838C713.257 569.785 714.552 572.675 713.606 575.265C711.413 581.145 715.051 586.326 716.695 588.27C720.83 593.152 726.958 595.644 732.24 594.647C744.098 592.405 750.724 578.404 748.682 567.393C746.589 556.133 736.873 545.62 723.969 540.637C713.406 536.552 700.602 535.555 683.711 537.399C657.654 540.289 631.845 548.211 606.883 555.884C601.153 557.628 595.473 559.421 589.744 561.115C558.654 570.383 525.222 578.454 491.541 575.166C456.565 571.728 394.684 555.186 377.594 525.341C376.249 522.95 377.046 519.91 379.437 518.565C381.829 517.22 384.868 518.017 386.263 520.409C400.662 545.57 457.113 561.813 492.538 565.251C524.524 568.39 556.81 560.517 586.953 551.599C592.633 549.905 598.313 548.161 603.993 546.417C629.403 538.595 655.661 530.523 682.615 527.583C694.274 526.288 711.613 525.291 727.507 531.42C743.849 537.698 755.707 550.802 758.447 565.649C761.686 583.287 750.326 601.423 734.083 604.512C732.738 604.762 731.343 604.911 729.898 604.911V604.811Z" stroke="#DBC69C" stroke-width="2" mask="url(#path-2-outside-1_20_10)"/>
<path d="M443.511 622.599C418.748 622.599 392.441 611.937 378.092 595.096C376.299 593.004 376.548 589.865 378.64 588.071C380.733 586.277 383.872 586.526 385.665 588.619C400.363 605.908 431.105 615.973 455.668 611.588C467.775 609.396 480.779 602.022 482.473 590.463C482.872 587.722 485.413 585.829 488.153 586.277C490.893 586.676 492.737 589.217 492.338 591.957C489.697 609.545 471.86 618.813 457.412 621.453C452.878 622.251 448.194 622.649 443.461 622.649L443.511 622.599Z" stroke="#DBC69C" stroke-width="2" mask="url(#path-2-outside-1_20_10)"/>
<path d="M381.928 673.02C380.732 673.02 379.537 672.572 378.59 671.725C376.547 669.881 376.398 666.742 378.241 664.699C385.316 656.927 395.38 653.14 405.245 650.25L408.036 649.453C416.057 647.161 423.63 644.969 429.709 640.435C435.489 636.15 440.072 628.278 437.83 621.452C436.933 618.861 438.378 616.021 440.969 615.124C443.56 614.277 446.4 615.672 447.297 618.263C451.283 630.121 444.058 642.179 435.688 648.407C428.165 653.987 419.346 656.528 410.826 658.97L408.036 659.767C400.164 662.059 391.295 665.048 385.615 671.326C384.619 672.422 383.273 672.97 381.928 672.97V673.02Z" stroke="#DBC69C" stroke-width="2" mask="url(#path-2-outside-1_20_10)"/>
<path d="M0.42146 298.242H37.6504C52.7294 298.242 64.4834 301.784 72.9126 308.869C81.3418 315.86 85.5564 325.648 85.5564 338.233C85.5564 346.436 83.5428 353.708 79.5155 360.047C75.5819 366.386 70.1029 371.373 63.0785 375.008C56.1479 378.551 48.1869 380.322 39.1958 380.322H0.42146L0 373.89L8.85066 371.792C9.13164 371.047 9.36578 368.669 9.5531 364.661C9.74041 360.653 9.83407 355.945 9.83407 350.538V328.165C9.83407 322.386 9.74041 317.538 9.5531 313.623C9.36578 309.614 9.13164 307.331 8.85066 306.771L0 304.674L0.42146 298.242ZM26.6925 306.911C26.6925 307.657 26.6456 308.869 26.552 310.547C26.552 312.225 26.5052 314.508 26.4115 317.398C26.4115 320.195 26.4115 323.784 26.4115 328.165V350.538C26.4115 353.055 26.4115 355.619 26.4115 358.229C26.5052 360.839 26.5988 363.216 26.6925 365.36C26.8798 367.504 27.0203 369.229 27.1139 370.534C29.549 370.907 31.8437 371.233 33.9978 371.513C36.2456 371.699 38.3529 371.792 40.3197 371.792C48.9362 371.792 55.4454 369.415 59.8473 364.661C64.3429 359.814 66.5907 352.449 66.5907 342.568C66.5907 336.136 65.8414 330.636 64.3429 326.068C62.8444 321.5 60.7371 317.725 58.021 314.742C55.3049 311.758 52.0737 309.568 48.3274 308.169C44.6748 306.771 40.6475 306.072 36.2456 306.072C34.7471 306.072 33.2017 306.165 31.6095 306.352C30.0173 306.445 28.3783 306.631 26.6925 306.911Z" fill="#DBC69C"/>
<path d="M161.138 368.576L170.27 370.674V376.267L148.213 382L144.982 380.042L145.123 370.674L144.701 370.534C141.985 374.636 139.082 377.525 135.991 379.203C132.994 380.788 129.857 381.581 126.579 381.581C120.022 381.581 114.637 379.53 110.423 375.428C106.208 371.326 104.101 365.174 104.101 356.97V345.085C104.101 343.22 104.007 341.216 103.82 339.072C103.726 336.835 103.586 334.551 103.398 332.22L93.8451 330.263V324.53L117.306 318.517L120.678 320.894C120.491 323.691 120.303 326.953 120.116 330.682C120.022 334.411 119.976 338.233 119.976 342.148L119.835 355.153C119.835 360.28 121.006 364.008 123.347 366.339C125.689 368.576 128.78 369.695 132.619 369.695C134.68 369.695 136.787 369.136 138.941 368.017C141.189 366.898 143.109 365.034 144.701 362.424V347.462C144.701 345.504 144.655 343.64 144.561 341.869C144.561 340.097 144.467 338.419 144.28 336.835C144.186 335.157 144.046 333.619 143.858 332.22L133.603 330.263V324.53L157.486 318.517L160.717 320.754C160.623 322.805 160.53 324.856 160.436 326.907C160.436 328.958 160.389 331.148 160.295 333.479C160.295 335.809 160.295 338.419 160.295 341.309V352.076C160.295 355.246 160.342 358.322 160.436 361.305C160.623 364.195 160.857 366.619 161.138 368.576Z" fill="#DBC69C"/>
<path d="M209.606 381.441C203.237 381.441 197.618 380.136 192.748 377.525C187.971 374.822 184.225 371.14 181.509 366.479C178.793 361.725 177.435 356.318 177.435 350.258C177.435 343.64 178.933 337.953 181.93 333.199C185.021 328.352 189.048 324.669 194.012 322.153C199.07 319.542 204.455 318.237 210.168 318.237C216.256 318.237 221.594 319.542 226.184 322.153C230.773 324.763 234.332 328.398 236.861 333.059C239.483 337.72 240.794 343.081 240.794 349.14C240.794 355.199 239.389 360.699 236.58 365.64C233.864 370.487 230.117 374.356 225.341 377.246C220.658 380.042 215.413 381.441 209.606 381.441ZM211.011 373.331C213.633 373.331 215.881 372.538 217.754 370.953C219.628 369.275 221.079 366.898 222.11 363.822C223.14 360.746 223.655 357.157 223.655 353.055C223.655 345.038 222.25 338.513 219.44 333.479C216.631 328.445 212.884 325.928 208.201 325.928C204.174 325.928 200.943 327.839 198.508 331.661C196.073 335.483 194.855 340.564 194.855 346.903C194.855 351.936 195.558 356.458 196.962 360.466C198.367 364.475 200.287 367.644 202.722 369.975C205.157 372.212 207.92 373.331 211.011 373.331Z" fill="#DBC69C"/>
<path d="M249.223 380.322L248.802 374.309L257.512 372.072C257.606 371.699 257.699 370.907 257.793 369.695C257.887 368.483 257.98 366.898 258.074 364.941C258.168 362.89 258.215 360.513 258.215 357.809L258.355 347.182C258.355 345.318 258.308 343.547 258.215 341.869C258.121 340.097 257.98 338.419 257.793 336.835C257.606 335.157 257.372 333.619 257.091 332.22L248.1 330.263V324.53L270.999 318.517L274.371 320.894L273.528 328.725L273.949 328.864C276.946 325.136 280.037 322.432 283.221 320.754C286.406 319.076 289.73 318.237 293.196 318.237C296.755 318.237 300.08 319.169 303.17 321.034C306.355 322.805 308.93 325.555 310.897 329.284C312.864 332.919 313.847 337.581 313.847 343.267L314.128 357.809C314.128 360.979 314.175 363.962 314.269 366.758C314.362 369.462 314.55 371.233 314.831 372.072L322.838 374.309L322.417 380.322H290.808L290.386 374.309L297.832 372.072C298.019 371.326 298.16 370.254 298.253 368.856C298.347 367.458 298.394 365.826 298.394 363.962C298.487 362.097 298.534 360.186 298.534 358.229L298.394 344.386C298.394 340.843 297.832 338 296.708 335.856C295.678 333.712 294.273 332.174 292.493 331.242C290.714 330.309 288.747 329.843 286.593 329.843C284.251 329.843 281.957 330.449 279.709 331.661C277.461 332.78 275.541 334.458 273.949 336.695V357.39C273.949 360.839 273.996 363.962 274.09 366.758C274.277 369.555 274.511 371.326 274.792 372.072L282.8 374.309L282.378 380.322H249.223ZM330.565 380.322L330.144 374.309L337.73 372.072C337.917 371.326 338.058 370.254 338.152 368.856C338.245 367.458 338.292 365.826 338.292 363.962C338.386 362.097 338.433 360.186 338.433 358.229L338.292 345.225C338.292 341.496 337.683 338.513 336.466 336.275C335.342 334.038 333.843 332.407 331.97 331.381C330.097 330.356 328.083 329.843 325.929 329.843C323.307 329.843 320.825 330.449 318.483 331.661C316.236 332.78 314.269 334.551 312.583 336.975L309.071 331.381C312.349 327.093 315.861 323.831 319.607 321.593C323.354 319.356 327.381 318.237 331.689 318.237C336.091 318.237 339.931 319.263 343.209 321.314C346.581 323.364 349.156 326.254 350.936 329.983C352.809 333.619 353.746 337.953 353.746 342.987L353.886 357.809C353.886 360.979 353.933 363.962 354.027 366.758C354.214 369.462 354.448 371.233 354.729 372.072L363.439 374.309L363.018 380.322H330.565Z" fill="#DBC69C"/>
<path d="M402.775 381.441C396.407 381.441 390.787 380.136 385.917 377.525C381.14 374.822 377.394 371.14 374.678 366.479C371.962 361.725 370.604 356.318 370.604 350.258C370.604 343.64 372.103 337.953 375.1 333.199C378.19 328.352 382.218 324.669 387.181 322.153C392.239 319.542 397.624 318.237 403.337 318.237C409.425 318.237 414.764 319.542 419.353 322.153C423.942 324.763 427.501 328.398 430.03 333.059C432.652 337.72 433.964 343.081 433.964 349.14C433.964 355.199 432.559 360.699 429.749 365.64C427.033 370.487 423.287 374.356 418.51 377.246C413.827 380.042 408.582 381.441 402.775 381.441ZM404.18 373.331C406.803 373.331 409.051 372.538 410.924 370.953C412.797 369.275 414.249 366.898 415.279 363.822C416.309 360.746 416.824 357.157 416.824 353.055C416.824 345.038 415.419 338.513 412.61 333.479C409.8 328.445 406.053 325.928 401.371 325.928C397.343 325.928 394.112 327.839 391.677 331.661C389.242 335.483 388.024 340.564 388.024 346.903C388.024 351.936 388.727 356.458 390.132 360.466C391.537 364.475 393.456 367.644 395.892 369.975C398.327 372.212 401.09 373.331 404.18 373.331Z" fill="#DBC69C"/>
<path d="M495.216 380.322L494.794 373.89L503.504 371.792C503.692 371.326 503.832 370.161 503.926 368.297C504.113 366.432 504.207 364.008 504.207 361.025C504.301 357.949 504.347 354.453 504.347 350.538V328.165C504.347 324.064 504.301 320.521 504.207 317.538C504.207 314.462 504.113 311.992 503.926 310.127C503.832 308.263 503.692 307.144 503.504 306.771L494.794 304.674L495.216 298.242H530.337L530.759 304.674L522.049 306.771C521.861 307.144 521.674 308.309 521.487 310.267C521.393 312.225 521.299 314.742 521.206 317.818C521.112 320.894 521.065 324.343 521.065 328.165V350.538C521.065 354.174 521.112 357.53 521.206 360.606C521.299 363.682 521.393 366.199 521.487 368.157C521.674 370.114 521.861 371.326 522.049 371.792L530.759 373.89L530.337 380.322H495.216ZM444.781 380.322L444.36 373.89L453.21 371.792C453.397 371.326 453.538 370.161 453.632 368.297C453.725 366.432 453.819 363.962 453.913 360.886C454.006 357.809 454.053 354.36 454.053 350.538V328.165C454.053 324.157 454.006 320.614 453.913 317.538C453.819 314.462 453.725 311.992 453.632 310.127C453.538 308.169 453.397 307.051 453.21 306.771L444.36 304.674L444.781 298.242H479.762L480.184 304.674L471.473 306.771C471.286 307.144 471.099 308.263 470.912 310.127C470.818 311.992 470.724 314.462 470.631 317.538C470.631 320.521 470.631 324.064 470.631 328.165V350.538C470.631 354.453 470.631 357.949 470.631 361.025C470.724 364.008 470.818 366.432 470.912 368.297C471.099 370.161 471.286 371.326 471.473 371.792L480.184 373.89L479.762 380.322H444.781ZM468.102 343.267V333.339C470.162 333.619 472.738 333.805 475.829 333.898C479.013 333.992 482.947 334.038 487.629 334.038C492.312 334.038 496.152 333.992 499.149 333.898C502.24 333.805 504.816 333.619 506.876 333.339V343.267C504.909 343.081 502.427 342.941 499.43 342.847C496.433 342.754 492.5 342.708 487.629 342.708C482.666 342.708 478.638 342.754 475.548 342.847C472.551 342.941 470.069 343.081 468.102 343.267Z" fill="#DBC69C"/>
<path d="M573.186 381.441C566.817 381.441 561.198 380.136 556.327 377.525C551.551 374.822 547.805 371.14 545.089 366.479C542.372 361.725 541.014 356.318 541.014 350.258C541.014 343.64 542.513 337.953 545.51 333.199C548.601 328.352 552.628 324.669 557.592 322.153C562.649 319.542 568.035 318.237 573.748 318.237C579.836 318.237 585.174 319.542 589.763 322.153C594.353 324.763 597.912 328.398 600.44 333.059C603.063 337.72 604.374 343.081 604.374 349.14C604.374 355.199 602.969 360.699 600.159 365.64C597.443 370.487 593.697 374.356 588.92 377.246C584.237 380.042 578.993 381.441 573.186 381.441ZM574.591 373.331C577.213 373.331 579.461 372.538 581.334 370.953C583.207 369.275 584.659 366.898 585.689 363.822C586.719 360.746 587.235 357.157 587.235 353.055C587.235 345.038 585.83 338.513 583.02 333.479C580.21 328.445 576.464 325.928 571.781 325.928C567.754 325.928 564.522 327.839 562.087 331.661C559.652 335.483 558.435 340.564 558.435 346.903C558.435 351.936 559.137 356.458 560.542 360.466C561.947 364.475 563.867 367.644 566.302 369.975C568.737 372.212 571.5 373.331 574.591 373.331Z" fill="#DBC69C"/>
<path d="M660.709 369.555C659.211 373.284 656.682 376.22 653.123 378.364C649.657 380.508 645.864 381.581 641.743 381.581C635.468 381.581 630.317 379.763 626.29 376.127C622.356 372.492 620.389 366.992 620.389 359.627L620.811 327.746H610.977V323.691L632.752 305.792H636.826L636.545 324.25L636.264 357.809C636.264 362.004 637.248 365.081 639.215 367.038C641.181 368.903 643.944 369.835 647.503 369.835C649.376 369.835 651.156 369.462 652.842 368.716C654.621 367.97 656.167 366.992 657.478 365.78L660.709 369.555ZM629.24 327.746V319.496H656.775V327.746H629.24Z" fill="#DBC69C"/>
<path d="M694.285 381.441C688.479 381.441 683.234 380.136 678.551 377.525C673.962 374.915 670.356 371.326 667.733 366.758C665.111 362.097 663.8 356.784 663.8 350.818C663.8 344.292 665.251 338.606 668.155 333.758C671.058 328.818 674.851 324.996 679.534 322.292C684.217 319.496 689.228 318.144 694.566 318.237C702.715 318.331 708.896 320.894 713.111 325.928C717.419 330.962 719.573 337.534 719.573 345.644V348.72H677.989V341.729H707.351L705.384 344.665V340.47C705.384 335.809 704.307 332.127 702.153 329.424C700.092 326.72 697.189 325.369 693.442 325.369C691.007 325.369 688.76 326.068 686.699 327.466C684.639 328.864 683 330.962 681.782 333.758C680.565 336.555 679.956 340.051 679.956 344.246V346.763C679.956 353.661 681.735 359.161 685.294 363.263C688.947 367.364 693.77 369.415 699.764 369.415C702.949 369.415 705.805 368.856 708.334 367.737C710.956 366.525 713.532 364.475 716.061 361.585L720.135 365.22C717.513 370.627 713.907 374.682 709.317 377.386C704.822 380.089 699.811 381.441 694.285 381.441Z" fill="#DBC69C"/>
<path d="M726.738 380.322L726.316 374.169L735.448 372.072C735.635 371.233 735.776 369.602 735.869 367.178C735.963 364.754 736.057 361.818 736.15 358.369C736.244 354.826 736.291 351.144 736.291 347.322V329.703C736.291 326.441 736.244 323.131 736.15 319.775C736.15 316.326 736.104 313.064 736.01 309.987C736.01 306.911 735.963 304.208 735.869 301.877C735.776 299.453 735.682 297.589 735.589 296.284L725.192 294.886L724.912 289.432L749.497 283L753.009 285.237C752.915 289.153 752.775 293.021 752.587 296.843C752.494 300.572 752.4 304.767 752.306 309.428C752.306 314.089 752.306 319.775 752.306 326.487L752.166 347.742C752.166 353.894 752.213 359.301 752.306 363.962C752.494 368.53 752.681 371.233 752.868 372.072L762 374.169L761.719 380.322H726.738Z" fill="#DBC69C"/>
</svg>
